HIERARCHY
ROOT Hips
{
    OFFSET 0.000000 0.000000 0.000000
    CHANNELS 6 Xposition Yposition Zposition Zrotation Xrotation Yrotation
    JOINT Spine
    {
        OFFSET -0.000000 8.167557 -0.000000
        CHANNELS 3 Zrotation Xrotation Yrotation
        JOINT Spine1
        {
            OFFSET 0.000002 23.859484 0.000002
            CHANNELS 3 Zrotation Xrotation Yrotation
            JOINT Neck
            {
                OFFSET -0.000002 27.221680 -0.000002
                CHANNELS 3 Zrotation Xrotation Yrotation
                JOINT Head
                {
                    OFFSET -0.000003 16.922937 2.035163
                    CHANNELS 3 Zrotation Xrotation Yrotation
                    End Site
                    {
                        OFFSET 0.000000 20.351660 0.000000
                    }
                }
            }
            JOINT LeftShoulder
            {
                OFFSET 4.036565 20.304848 -0.371913
                CHANNELS 3 Zrotation Xrotation Yrotation
                JOINT LeftArm
                {
                    OFFSET 12.502549 -0.000003 -0.000003
                    CHANNELS 3 Zrotation Xrotation Yrotation
                    JOINT LeftForeArm
                    {
                        OFFSET 31.806915 0.000006 -0.000012
                        CHANNELS 3 Zrotation Xrotation Yrotation
                        JOINT LeftHand
                        {
                            OFFSET 24.843237 0.000002 -0.000007
                            CHANNELS 3 Zrotation Xrotation Yrotation
                            JOINT LeftHandThumb1
                            {
                                OFFSET 2.126757 -2.416760 3.383455
                                CHANNELS 3 Zrotation Xrotation Yrotation
                                JOINT LeftHandThumb2
                                {
                                    OFFSET 3.212136 -0.000009 -0.000006
                                    CHANNELS 3 Zrotation Xrotation Yrotation
                                    JOINT LeftHandThumb3
                                    {
                                        OFFSET 2.745440 -0.000006 -0.000002
                                        CHANNELS 3 Zrotation Xrotation Yrotation
                                        End Site
                                        {
                                            OFFSET 2.793713 0.000000 0.000000
                                        }
                                    }
                                }
                            }
                            JOINT LeftHandIndex1
                            {
                                OFFSET 8.700332 -0.000004 3.383463
                                CHANNELS 3 Zrotation Xrotation Yrotation
                                JOINT LeftHandIndex2
                                {
                                    OFFSET 4.833524 0.000001 -0.000002
                                    CHANNELS 3 Zrotation Xrotation Yrotation
                                    JOINT LeftHandIndex3
                                    {
                                        OFFSET 2.416761 0.000001 -0.000002
                                        CHANNELS 3 Zrotation Xrotation Yrotation
                                        End Site
                                        {
                                            OFFSET 2.459254 0.000000 0.000000
                                        }
                                    }
                                }
                            }
                            JOINT LeftHandMiddle1
                            {
                                OFFSET 8.700328 -0.000007 1.121376
                                CHANNELS 3 Zrotation Xrotation Yrotation
                                JOINT LeftHandMiddle2
                                {
                                    OFFSET 5.316872 -0.000003 -0.000004
                                    CHANNELS 3 Zrotation Xrotation Yrotation
                                    JOINT LeftHandMiddle3
                                    {
                                        OFFSET 2.900109 -0.000003 -0.000003
                                        CHANNELS 3 Zrotation Xrotation Yrotation
                                        End Site
                                        {
                                            OFFSET 2.951103 0.000000 0.000000
                                        }
                                    }
                                }
                            }
                            JOINT LeftHandRing1
                            {
                                OFFSET 8.216985 -0.000001 -1.121383
                                CHANNELS 3 Zrotation Xrotation Yrotation
                                JOINT LeftHandRing2
                                {
                                    OFFSET 4.833525 0.000001 -0.000003
                                    CHANNELS 3 Zrotation Xrotation Yrotation
                                    JOINT LeftHandRing3
                                    {
                                        OFFSET 2.416762 0.000002 -0.000002
                                        CHANNELS 3 Zrotation Xrotation Yrotation
                                        End Site
                                        {
                                            OFFSET 2.459254 0.000000 0.000000
                                        }
                                    }
                                }
                            }
                            JOINT LeftHandPinky1
                            {
                                OFFSET 7.733633 0.000000 -3.383469
                                CHANNELS 3 Zrotation Xrotation Yrotation
                                JOINT LeftHandPinky2
                                {
                                    OFFSET 3.866806 -0.000004 0.000003
                                    CHANNELS 3 Zrotation Xrotation Yrotation
                                    JOINT LeftHandPinky3
                                    {
                                        OFFSET 1.933414 0.000006 0.000000
                                        CHANNELS 3 Zrotation Xrotation Yrotation
                                        End Site
                                        {
                                            OFFSET 1.967405 0.000000 0.000000
                                        }
                                    }
                                }
                            }
                        }
                    }
                }
            }
            JOINT RightShoulder
            {
                OFFSET -4.036565 20.304853 -0.371906
                CHANNELS 3 Zrotation Xrotation Yrotation
                JOINT RightArm
                {
                    OFFSET -12.502551 -0.000001 0.000004
                    CHANNELS 3 Zrotation Xrotation Yrotation
                    JOINT RightForeArm
                    {
                        OFFSET -31.806915 0.000000 0.000012
                        CHANNELS 3 Zrotation Xrotation Yrotation
                        JOINT RightHand
                        {
                            OFFSET -24.843229 0.000004 0.000006
                            CHANNELS 3 Zrotation Xrotation Yrotation
                            JOINT RightHandThumb1
                            {
                                OFFSET -2.126750 -2.416763 3.383456
                                CHANNELS 3 Zrotation Xrotation Yrotation
                                JOINT RightHandThumb2
                                {
                                    OFFSET -3.212134 0.000001 -0.000003
                                    CHANNELS 3 Zrotation Xrotation Yrotation
                                    JOINT RightHandThumb3
                                    {
                                        OFFSET -2.745439 0.000001 0.000004
                                        CHANNELS 3 Zrotation Xrotation Yrotation
                                        End Site
                                        {
                                            OFFSET -2.793713 0.000000 0.000000
                                        }
                                    }
                                }
                            }
                            JOINT RightHandIndex1
                            {
                                OFFSET -8.700332 -0.000004 3.383471
                                CHANNELS 3 Zrotation Xrotation Yrotation
                                JOINT RightHandIndex2
                                {
                                    OFFSET -4.833519 -0.000003 0.000009
                                    CHANNELS 3 Zrotation Xrotation Yrotation
                                    JOINT RightHandIndex3
                                    {
                                        OFFSET -2.416762 0.000000 -0.000007
                                        CHANNELS 3 Zrotation Xrotation Yrotation
                                        End Site
                                        {
                                            OFFSET -2.459254 0.000000 0.000000
                                        }
                                    }
                                }
                            }
                            JOINT RightHandMiddle1
                            {
                                OFFSET -8.700335 -0.000001 1.121369
                                CHANNELS 3 Zrotation Xrotation Yrotation
                                JOINT RightHandMiddle2
                                {
                                    OFFSET -5.316872 0.000003 -0.000011
                                    CHANNELS 3 Zrotation Xrotation Yrotation
                                    JOINT RightHandMiddle3
                                    {
                                        OFFSET -2.900113 0.000002 -0.000003
                                        CHANNELS 3 Zrotation Xrotation Yrotation
                                        End Site
                                        {
                                            OFFSET -2.951103 0.000000 0.000000
                                        }
                                    }
                                }
                            }
                            JOINT RightHandRing1
                            {
                                OFFSET -8.216978 0.000003 -1.121373
                                CHANNELS 3 Zrotation Xrotation Yrotation
                                JOINT RightHandRing2
                                {
                                    OFFSET -4.833519 -0.000005 0.000008
                                    CHANNELS 3 Zrotation Xrotation Yrotation
                                    JOINT RightHandRing3
                                    {
                                        OFFSET -2.416759 0.000000 -0.000008
                                        CHANNELS 3 Zrotation Xrotation Yrotation
                                        End Site
                                        {
                                            OFFSET -2.459254 0.000000 0.000000
                                        }
                                    }
                                }
                            }
                            JOINT RightHandPinky1
                            {
                                OFFSET -7.733627 -0.000002 -3.383456
                                CHANNELS 3 Zrotation Xrotation Yrotation
                                JOINT RightHandPinky2
                                {
                                    OFFSET -3.866812 0.000002 0.000004
                                    CHANNELS 3 Zrotation Xrotation Yrotation
                                    JOINT RightHandPinky3
                                    {
                                        OFFSET -1.933411 0.000002 -0.000010
                                        CHANNELS 3 Zrotation Xrotation Yrotation
                                        End Site
                                        {
                                            OFFSET -1.967405 0.000000 0.000000
                                        }
                                    }
                                }
                            }
                        }
                    }
                }
            }
        }
    }
    JOINT LeftUpLeg
    {
        OFFSET 10.175833 -0.000000 0.000007
        CHANNELS 3 Zrotation Xrotation Yrotation
        JOINT LeftLeg
        {
            OFFSET 0.000006 -42.882954 0.000007
            CHANNELS 3 Zrotation Xrotation Yrotation
            JOINT LeftFoot
            {
                OFFSET 0.000004 -39.006771 0.000007
                CHANNELS 3 Zrotation Xrotation Yrotation
                JOINT LeftToeBase
                {
                    OFFSET -0.000001 -6.614287 15.263733
                    CHANNELS 3 Zrotation Xrotation Yrotation
                    End Site
                    {
                        OFFSET 0.000000 0.000000 4.070332
                    }
                }
            }
        }
    }
    JOINT RightUpLeg
    {
        OFFSET -10.175833 0.000000 -0.000007
        CHANNELS 3 Zrotation Xrotation Yrotation
        JOINT RightLeg
        {
            OFFSET 0.000001 -42.882950 0.000001
            CHANNELS 3 Zrotation Xrotation Yrotation
            JOINT RightFoot
            {
                OFFSET -0.000005 -39.006771 -0.000006
                CHANNELS 3 Zrotation Xrotation Yrotation
                JOINT RightToeBase
                {
                    OFFSET -0.000005 -6.614288 15.263737
                    CHANNELS 3 Zrotation Xrotation Yrotation
                    End Site
                    {
                        OFFSET 0.000000 0.000000 4.070332
                    }
                }
            }
        }
    }
}
MOTION
Frames:    4
Frame Time:    0.002778
-2.004483    92.720695    225.944046    1.395644    3.844753    -15.407201    -0.002020    5.757309    2.074504    -0.010102    5.757312    2.075314    5.779369    -6.247881    6.686038    5.779368    -6.247883    6.686038    -4.292593    1.309063    -0.952551    -62.521408    19.375669    -4.937047    -23.553471    3.518101    -98.818939    27.779724    10.221896    19.101194    47.448208    38.866432    -34.355026    -35.000008    -0.000002    -0.000006    -0.000000    0.000000    -0.000000    0.000006    10.000001    0.000005    -0.000000    0.000000    -0.000000    -0.000000    0.000000    -0.000000    -0.000000    0.000000    -0.000000    -0.000000    0.000000    -0.000000    -0.000000    0.000000    -0.000000    -0.000000    0.000000    -0.000000    -0.000000    0.000000    -0.000000    -0.000000    0.000000    -0.000000    0.000000    -9.999996    0.000000    -0.000000    0.000000    -0.000000    -0.000000    0.000000    -0.000000    -7.326181    1.932056    5.702260    60.485718    36.441845    14.438267    -4.950055    -13.891141    78.676239    -14.502730    6.025486    -22.005436    -47.448215    38.866432    34.355042    34.999992    -0.000004    0.000003    -0.000000    0.000000    -0.000000    -0.000006    10.000003    0.000002    -0.000000    0.000000    -0.000000    -0.000000    0.000000    -0.000000    -0.000000    0.000000    -0.000000    -0.000000    0.000000    -0.000000    -0.000000    0.000000    -0.000000    -0.000000    0.000000    -0.000000    -0.000000    0.000000    -0.000000    -0.000000    0.000000    -0.000000    0.000004    -10.000002    0.000002    -0.000000    0.000000    -0.000000    -0.000000    0.000000    -0.000000    8.058640    -11.953452    0.353113    0.000002    30.381081    -0.000003    -15.978770    -28.291958    9.319019    0.000001    1.702345    -0.000000    -13.269591    -18.788935    -7.289395    0.000002    29.581966    -0.000001    20.154642    -21.041189    -13.099617    -0.000001    -3.964002    0.000006    
-2.069549    92.678047    225.891830    1.408693    3.843251    -15.373240    -0.000606    5.809733    2.081113    -0.003032    5.809731    2.081360    5.763095    -6.275151    6.670442    5.763096    -6.275152    6.670441    -4.289622    1.296830    -1.000363    -62.562355    19.361410    -4.952446    -23.622200    3.529878    -98.837448    27.777372    10.223558    19.107143    47.448219    38.866432    -34.355030    -34.999996    0.000004    -0.000006    -0.000000    0.000000    -0.000000    0.000004    9.999999    -0.000005    -0.000000    0.000000    -0.000000    -0.000000    0.000000    -0.000000    -0.000000    0.000000    -0.000000    -0.000000    0.000000    -0.000000    -0.000000    0.000000    -0.000000    -0.000000    0.000000    -0.000000    -0.000000    0.000000    -0.000000    -0.000000    0.000000    -0.000000    -0.000001    -10.000000    0.000002    -0.000000    0.000000    -0.000000    -0.000000    0.000000    -0.000000    -7.294983    1.902994    5.738138    60.346806    36.344147    14.512938    -4.899014    -13.919885    78.709785    -14.510028    6.021091    -21.982250    -47.448212    38.866440    34.355030    34.999996    -0.000002    0.000000    -0.000000    0.000000    -0.000000    0.000001    10.000003    -0.000003    -0.000000    0.000000    -0.000000    -0.000000    0.000000    -0.000000    -0.000000    0.000000    -0.000000    -0.000000    0.000000    -0.000000    -0.000000    0.000000    -0.000000    -0.000000    0.000000    -0.000000    -0.000000    0.000000    -0.000000    -0.000000    0.000000    -0.000000    -0.000003    -9.999998    -0.000009    -0.000000    0.000000    -0.000000    -0.000000    0.000000    -0.000000    8.100996    -12.130698    0.366477    0.000001    30.673964    -0.000003    -15.957401    -28.325111    9.249579    0.000000    1.660306    0.000000    -13.286652    -18.923193    -7.334090    -0.000000    29.819876    -0.000000    20.308044    -21.075008    -13.004973    0.000001    -4.000324    -0.000003    
-2.137502    92.634048    225.837540    1.422846    3.838544    -15.345229    0.000463    5.863090    2.089051    0.002316    5.863089    2.088860    5.747622    -6.306118    6.656926    5.747625    -6.306119    6.656925    -4.291537    1.287704    -1.046902    -62.612816    19.346266    -4.966276    -23.698084    3.525892    -98.862480    27.770523    10.226123    19.118050    47.448215    38.866432    -34.355034    -34.999992    -0.000003    0.000004    -0.000000    0.000000    -0.000000    0.000006    10.000009    0.000006    -0.000000    0.000000    -0.000000    -0.000000    0.000000    -0.000000    -0.000000    0.000000    -0.000000    -0.000000    0.000000    -0.000000    -0.000000    0.000000    -0.000000    -0.000000    0.000000    -0.000000    -0.000000    0.000000    -0.000000    -0.000000    0.000000    -0.000000    0.000001    -10.000001    0.000000    -0.000000    0.000000    -0.000000    -0.000000    0.000000    -0.000000    -7.266929    1.870719    5.777841    60.202648    36.252350    14.593988    -4.836147    -13.954188    78.752068    -14.506131    6.013984    -21.966576    -47.448215    38.866428    34.355038    35.000008    0.000002    0.000018    -0.000000    0.000000    -0.000000    0.000004    10.000001    0.000007    -0.000000    0.000000    -0.000000    -0.000000    0.000000    -0.000000    -0.000000    0.000000    -0.000000    -0.000000    0.000000    -0.000000    -0.000000    0.000000    -0.000000    -0.000000    0.000000    -0.000000    -0.000000    0.000000    -0.000000    -0.000000    0.000000    -0.000000    0.000004    -9.999997    0.000007    -0.000000    0.000000    -0.000000    -0.000000    0.000000    -0.000000    8.145835    -12.310209    0.390913    0.000002    30.974327    -0.000002    -15.924349    -28.364946    9.191137    0.000001    1.599907    -0.000000    -13.304563    -19.063858    -7.379316    0.000001    30.071564    0.000002    20.451248    -21.109392    -12.910938    0.000001    -4.018402    0.000000    
-2.199267    92.588493    225.782516    1.436547    3.831017    -15.324853    0.001672    5.917140    2.097157    0.008361    5.917144    2.096463    5.736335    -6.329493    6.647833    5.736334    -6.329494    6.647834    -4.281265    1.281577    -1.100233    -62.664097    19.335566    -4.981917    -23.796892    3.526329    -98.882523    27.759535    10.226639    19.129147    47.448208    38.866428    -34.355042    -34.999992    -0.000007    0.000006    -0.000000    0.000000    -0.000000    -0.000000    10.000000    -0.000000    -0.000000    0.000000    -0.000000    -0.000000    0.000000    -0.000000    -0.000000    0.000000    -0.000000    -0.000000    0.000000    -0.000000    -0.000000    0.000000    -0.000000    -0.000000    0.000000    -0.000000    -0.000000    0.000000    -0.000000    -0.000000    0.000000    -0.000000    -0.000002    -10.000003    -0.000002    -0.000000    0.000000    -0.000000    -0.000000    0.000000    -0.000000    -7.240675    1.835145    5.824878    60.030506    36.177906    14.693540    -4.811806    -13.969167    78.754723    -14.507397    6.011096    -21.956209    -47.448212    38.866428    34.355038    35.000004    -0.000004    -0.000006    -0.000000    0.000000    -0.000000    0.000006    9.999998    0.000020    -0.000000    0.000000    -0.000000    -0.000000    0.000000    -0.000000    -0.000000    0.000000    -0.000000    -0.000000    0.000000    -0.000000    -0.000000    0.000000    -0.000000    -0.000000    0.000000    -0.000000    -0.000000    0.000000    -0.000000    -0.000000    0.000000    -0.000000    0.000005    -9.999997    0.000008    -0.000000    0.000000    -0.000000    -0.000000    0.000000    -0.000000    8.185858    -12.490958    0.409229    -0.000001    31.283968    0.000002    -15.885850    -28.402617    9.115411    0.000000    1.561622    -0.000000    -13.324126    -19.211714    -7.421793    0.000001    30.327526    -0.000003    20.579065    -21.128830    -12.830251    -0.000000    -4.018462    -0.000002    
